<mxfile host="app.diagrams.net" modified="2023-03-20T12:53:23.516Z" agent="5.0 (Windows NT 10.0; Win64; x64) AppleWebKit/537.36 (KHTML, like Gecko) Chrome/111.0.0.0 Safari/537.36" etag="XBYjQyU5ARX0rzxjXK4g" version="21.0.2" type="github">
  <diagram name="Page-1" id="kNBvir49y5RvbMxRYtU8">
    <mxGraphModel dx="934" dy="553" grid="1" gridSize="10" guides="1" tooltips="1" connect="1" arrows="1" fold="1" page="1" pageScale="1" pageWidth="1920" pageHeight="1200" math="0" shadow="0">
      <root>
        <mxCell id="0" />
        <mxCell id="1" parent="0" />
        <mxCell id="5zbs8pa0OJM7zK-rl6oV-23" style="edgeStyle=orthogonalEdgeStyle;rounded=0;orthogonalLoop=1;jettySize=auto;html=1;fontSize=14;" edge="1" parent="1" source="5zbs8pa0OJM7zK-rl6oV-1" target="5zbs8pa0OJM7zK-rl6oV-3">
          <mxGeometry relative="1" as="geometry">
            <Array as="points">
              <mxPoint x="329" y="560" />
              <mxPoint x="329" y="560" />
            </Array>
          </mxGeometry>
        </mxCell>
        <mxCell id="5zbs8pa0OJM7zK-rl6oV-1" value="CloudFormation" style="sketch=0;points=[[0,0,0],[0.25,0,0],[0.5,0,0],[0.75,0,0],[1,0,0],[0,1,0],[0.25,1,0],[0.5,1,0],[0.75,1,0],[1,1,0],[0,0.25,0],[0,0.5,0],[0,0.75,0],[1,0.25,0],[1,0.5,0],[1,0.75,0]];points=[[0,0,0],[0.25,0,0],[0.5,0,0],[0.75,0,0],[1,0,0],[0,1,0],[0.25,1,0],[0.5,1,0],[0.75,1,0],[1,1,0],[0,0.25,0],[0,0.5,0],[0,0.75,0],[1,0.25,0],[1,0.5,0],[1,0.75,0]];outlineConnect=0;fontColor=#232F3E;gradientColor=#F34482;gradientDirection=north;fillColor=#BC1356;strokeColor=#ffffff;dashed=0;verticalLabelPosition=bottom;verticalAlign=top;align=center;html=1;fontSize=14;fontStyle=0;aspect=fixed;shape=mxgraph.aws4.resourceIcon;resIcon=mxgraph.aws4.cloudformation;" vertex="1" parent="1">
          <mxGeometry x="290" y="640" width="78" height="78" as="geometry" />
        </mxCell>
        <mxCell id="5zbs8pa0OJM7zK-rl6oV-3" value="SSM Document" style="sketch=0;outlineConnect=0;fontColor=#232F3E;gradientColor=none;fillColor=#B0084D;strokeColor=none;dashed=0;verticalLabelPosition=bottom;verticalAlign=top;align=center;html=1;fontSize=14;fontStyle=0;aspect=fixed;pointerEvents=1;shape=mxgraph.aws4.documents;" vertex="1" parent="1">
          <mxGeometry x="297" y="280" width="64" height="78" as="geometry" />
        </mxCell>
        <mxCell id="5zbs8pa0OJM7zK-rl6oV-12" style="edgeStyle=orthogonalEdgeStyle;rounded=0;orthogonalLoop=1;jettySize=auto;html=1;fontSize=14;" edge="1" parent="1" source="5zbs8pa0OJM7zK-rl6oV-4" target="5zbs8pa0OJM7zK-rl6oV-5">
          <mxGeometry relative="1" as="geometry">
            <Array as="points">
              <mxPoint x="659" y="510" />
            </Array>
          </mxGeometry>
        </mxCell>
        <mxCell id="5zbs8pa0OJM7zK-rl6oV-15" style="edgeStyle=orthogonalEdgeStyle;rounded=0;orthogonalLoop=1;jettySize=auto;html=1;fontSize=14;" edge="1" parent="1" source="5zbs8pa0OJM7zK-rl6oV-4" target="5zbs8pa0OJM7zK-rl6oV-3">
          <mxGeometry relative="1" as="geometry" />
        </mxCell>
        <mxCell id="5zbs8pa0OJM7zK-rl6oV-57" style="edgeStyle=orthogonalEdgeStyle;rounded=0;orthogonalLoop=1;jettySize=auto;html=1;entryX=0.5;entryY=1;entryDx=0;entryDy=0;entryPerimeter=0;fontSize=14;" edge="1" parent="1" source="5zbs8pa0OJM7zK-rl6oV-4" target="5zbs8pa0OJM7zK-rl6oV-18">
          <mxGeometry relative="1" as="geometry">
            <Array as="points">
              <mxPoint x="915" y="510" />
            </Array>
          </mxGeometry>
        </mxCell>
        <mxCell id="5zbs8pa0OJM7zK-rl6oV-58" style="edgeStyle=orthogonalEdgeStyle;rounded=0;orthogonalLoop=1;jettySize=auto;html=1;fontSize=14;" edge="1" parent="1" source="5zbs8pa0OJM7zK-rl6oV-4" target="5zbs8pa0OJM7zK-rl6oV-7">
          <mxGeometry relative="1" as="geometry" />
        </mxCell>
        <mxCell id="5zbs8pa0OJM7zK-rl6oV-4" value="SSM Automation" style="sketch=0;outlineConnect=0;fontColor=#232F3E;gradientColor=none;fillColor=#B0084D;strokeColor=none;dashed=0;verticalLabelPosition=bottom;verticalAlign=top;align=center;html=1;fontSize=14;fontStyle=0;aspect=fixed;pointerEvents=1;shape=mxgraph.aws4.automation;" vertex="1" parent="1">
          <mxGeometry x="488" y="474" width="78" height="78" as="geometry" />
        </mxCell>
        <mxCell id="5zbs8pa0OJM7zK-rl6oV-52" style="edgeStyle=orthogonalEdgeStyle;rounded=0;orthogonalLoop=1;jettySize=auto;html=1;fontSize=14;" edge="1" parent="1" source="5zbs8pa0OJM7zK-rl6oV-5">
          <mxGeometry relative="1" as="geometry">
            <mxPoint x="660" y="170" as="targetPoint" />
            <Array as="points">
              <mxPoint x="660" y="220" />
              <mxPoint x="660" y="220" />
            </Array>
          </mxGeometry>
        </mxCell>
        <mxCell id="5zbs8pa0OJM7zK-rl6oV-63" style="edgeStyle=orthogonalEdgeStyle;rounded=0;orthogonalLoop=1;jettySize=auto;html=1;exitX=0.5;exitY=0;exitDx=0;exitDy=0;exitPerimeter=0;entryX=0.5;entryY=1;entryDx=0;entryDy=0;entryPerimeter=0;" edge="1" parent="1" source="5zbs8pa0OJM7zK-rl6oV-5" target="5zbs8pa0OJM7zK-rl6oV-18">
          <mxGeometry relative="1" as="geometry" />
        </mxCell>
        <mxCell id="5zbs8pa0OJM7zK-rl6oV-5" value="EC2 Image Builder" style="sketch=0;points=[[0,0,0],[0.25,0,0],[0.5,0,0],[0.75,0,0],[1,0,0],[0,1,0],[0.25,1,0],[0.5,1,0],[0.75,1,0],[1,1,0],[0,0.25,0],[0,0.5,0],[0,0.75,0],[1,0.25,0],[1,0.5,0],[1,0.75,0]];outlineConnect=0;fontColor=#232F3E;gradientColor=#F78E04;gradientDirection=north;fillColor=#D05C17;strokeColor=#ffffff;dashed=0;verticalLabelPosition=bottom;verticalAlign=top;align=center;html=1;fontSize=14;fontStyle=0;aspect=fixed;shape=mxgraph.aws4.resourceIcon;resIcon=mxgraph.aws4.ec2_image_builder;" vertex="1" parent="1">
          <mxGeometry x="620" y="280" width="78" height="78" as="geometry" />
        </mxCell>
        <mxCell id="5zbs8pa0OJM7zK-rl6oV-61" style="edgeStyle=orthogonalEdgeStyle;rounded=0;orthogonalLoop=1;jettySize=auto;html=1;entryX=0;entryY=0.5;entryDx=0;entryDy=0;entryPerimeter=0;fontSize=14;" edge="1" parent="1" source="5zbs8pa0OJM7zK-rl6oV-7" target="5zbs8pa0OJM7zK-rl6oV-18">
          <mxGeometry relative="1" as="geometry" />
        </mxCell>
        <mxCell id="5zbs8pa0OJM7zK-rl6oV-7" value="Application Inventory" style="sketch=0;outlineConnect=0;fontColor=#232F3E;gradientColor=none;fillColor=#B0084D;strokeColor=none;dashed=0;verticalLabelPosition=bottom;verticalAlign=top;align=center;html=1;fontSize=14;fontStyle=0;aspect=fixed;pointerEvents=1;shape=mxgraph.aws4.inventory;" vertex="1" parent="1">
          <mxGeometry x="488" y="47.5" width="78" height="78" as="geometry" />
        </mxCell>
        <mxCell id="5zbs8pa0OJM7zK-rl6oV-10" style="edgeStyle=orthogonalEdgeStyle;rounded=0;orthogonalLoop=1;jettySize=auto;html=1;fontSize=14;" edge="1" parent="1" source="5zbs8pa0OJM7zK-rl6oV-8" target="5zbs8pa0OJM7zK-rl6oV-4">
          <mxGeometry relative="1" as="geometry" />
        </mxCell>
        <mxCell id="5zbs8pa0OJM7zK-rl6oV-31" style="edgeStyle=orthogonalEdgeStyle;rounded=0;orthogonalLoop=1;jettySize=auto;html=1;entryX=0.5;entryY=1;entryDx=0;entryDy=0;entryPerimeter=0;fontSize=14;" edge="1" parent="1" source="5zbs8pa0OJM7zK-rl6oV-8" target="5zbs8pa0OJM7zK-rl6oV-18">
          <mxGeometry relative="1" as="geometry">
            <Array as="points">
              <mxPoint x="779" y="510" />
              <mxPoint x="915" y="510" />
            </Array>
          </mxGeometry>
        </mxCell>
        <mxCell id="5zbs8pa0OJM7zK-rl6oV-40" style="edgeStyle=orthogonalEdgeStyle;rounded=0;orthogonalLoop=1;jettySize=auto;html=1;fontSize=14;" edge="1" parent="1" source="5zbs8pa0OJM7zK-rl6oV-8" target="5zbs8pa0OJM7zK-rl6oV-38">
          <mxGeometry relative="1" as="geometry" />
        </mxCell>
        <mxCell id="5zbs8pa0OJM7zK-rl6oV-8" value="AWS Systems Manager" style="sketch=0;points=[[0,0,0],[0.25,0,0],[0.5,0,0],[0.75,0,0],[1,0,0],[0,1,0],[0.25,1,0],[0.5,1,0],[0.75,1,0],[1,1,0],[0,0.25,0],[0,0.5,0],[0,0.75,0],[1,0.25,0],[1,0.5,0],[1,0.75,0]];points=[[0,0,0],[0.25,0,0],[0.5,0,0],[0.75,0,0],[1,0,0],[0,1,0],[0.25,1,0],[0.5,1,0],[0.75,1,0],[1,1,0],[0,0.25,0],[0,0.5,0],[0,0.75,0],[1,0.25,0],[1,0.5,0],[1,0.75,0]];outlineConnect=0;fontColor=#232F3E;gradientColor=#F34482;gradientDirection=north;fillColor=#BC1356;strokeColor=#ffffff;dashed=0;verticalLabelPosition=bottom;verticalAlign=top;align=center;html=1;fontSize=14;fontStyle=0;aspect=fixed;shape=mxgraph.aws4.resourceIcon;resIcon=mxgraph.aws4.systems_manager;" vertex="1" parent="1">
          <mxGeometry x="740" y="624" width="78" height="78" as="geometry" />
        </mxCell>
        <mxCell id="5zbs8pa0OJM7zK-rl6oV-39" style="edgeStyle=orthogonalEdgeStyle;rounded=0;orthogonalLoop=1;jettySize=auto;html=1;fontSize=14;" edge="1" parent="1" source="5zbs8pa0OJM7zK-rl6oV-18" target="5zbs8pa0OJM7zK-rl6oV-38">
          <mxGeometry relative="1" as="geometry" />
        </mxCell>
        <mxCell id="5zbs8pa0OJM7zK-rl6oV-18" value="EC2 Instances" style="outlineConnect=0;dashed=0;verticalLabelPosition=bottom;verticalAlign=top;align=center;html=1;shape=mxgraph.aws3.ec2;fillColor=#F58534;gradientColor=none;fontSize=14;" vertex="1" parent="1">
          <mxGeometry x="876.75" y="40" width="76.5" height="93" as="geometry" />
        </mxCell>
        <mxCell id="5zbs8pa0OJM7zK-rl6oV-67" style="edgeStyle=orthogonalEdgeStyle;rounded=0;orthogonalLoop=1;jettySize=auto;html=1;entryX=0.5;entryY=1;entryDx=0;entryDy=0;entryPerimeter=0;" edge="1" parent="1" source="5zbs8pa0OJM7zK-rl6oV-19" target="5zbs8pa0OJM7zK-rl6oV-1">
          <mxGeometry relative="1" as="geometry" />
        </mxCell>
        <mxCell id="5zbs8pa0OJM7zK-rl6oV-19" value="AWS CDK" style="sketch=0;points=[[0,0,0],[0.25,0,0],[0.5,0,0],[0.75,0,0],[1,0,0],[0,1,0],[0.25,1,0],[0.5,1,0],[0.75,1,0],[1,1,0],[0,0.25,0],[0,0.5,0],[0,0.75,0],[1,0.25,0],[1,0.5,0],[1,0.75,0]];outlineConnect=0;fontColor=#232F3E;gradientColor=#4D72F3;gradientDirection=north;fillColor=#3334B9;strokeColor=#ffffff;dashed=0;verticalLabelPosition=bottom;verticalAlign=top;align=center;html=1;fontSize=14;fontStyle=0;aspect=fixed;shape=mxgraph.aws4.resourceIcon;resIcon=mxgraph.aws4.cloud_development_kit;" vertex="1" parent="1">
          <mxGeometry x="290" y="810" width="78" height="78" as="geometry" />
        </mxCell>
        <mxCell id="5zbs8pa0OJM7zK-rl6oV-21" style="edgeStyle=orthogonalEdgeStyle;rounded=0;orthogonalLoop=1;jettySize=auto;html=1;fontSize=14;" edge="1" parent="1" source="5zbs8pa0OJM7zK-rl6oV-20" target="5zbs8pa0OJM7zK-rl6oV-19">
          <mxGeometry relative="1" as="geometry" />
        </mxCell>
        <mxCell id="5zbs8pa0OJM7zK-rl6oV-20" value="Developer" style="shape=umlActor;verticalLabelPosition=bottom;verticalAlign=top;html=1;outlineConnect=0;fontSize=14;" vertex="1" parent="1">
          <mxGeometry x="314" y="974" width="30" height="60" as="geometry" />
        </mxCell>
        <mxCell id="5zbs8pa0OJM7zK-rl6oV-27" style="edgeStyle=orthogonalEdgeStyle;rounded=0;orthogonalLoop=1;jettySize=auto;html=1;entryX=0.5;entryY=1;entryDx=0;entryDy=0;entryPerimeter=0;fontSize=14;" edge="1" parent="1" source="5zbs8pa0OJM7zK-rl6oV-24" target="5zbs8pa0OJM7zK-rl6oV-8">
          <mxGeometry relative="1" as="geometry" />
        </mxCell>
        <mxCell id="5zbs8pa0OJM7zK-rl6oV-24" value="AWS Console" style="sketch=0;points=[[0,0,0],[0.25,0,0],[0.5,0,0],[0.75,0,0],[1,0,0],[0,1,0],[0.25,1,0],[0.5,1,0],[0.75,1,0],[1,1,0],[0,0.25,0],[0,0.5,0],[0,0.75,0],[1,0.25,0],[1,0.5,0],[1,0.75,0]];points=[[0,0,0],[0.25,0,0],[0.5,0,0],[0.75,0,0],[1,0,0],[0,1,0],[0.25,1,0],[0.5,1,0],[0.75,1,0],[1,1,0],[0,0.25,0],[0,0.5,0],[0,0.75,0],[1,0.25,0],[1,0.5,0],[1,0.75,0]];outlineConnect=0;fontColor=#232F3E;gradientColor=#F34482;gradientDirection=north;fillColor=#BC1356;strokeColor=#ffffff;dashed=0;verticalLabelPosition=bottom;verticalAlign=top;align=center;html=1;fontSize=14;fontStyle=0;aspect=fixed;shape=mxgraph.aws4.resourceIcon;resIcon=mxgraph.aws4.management_console;" vertex="1" parent="1">
          <mxGeometry x="740" y="804" width="78" height="78" as="geometry" />
        </mxCell>
        <mxCell id="5zbs8pa0OJM7zK-rl6oV-30" style="edgeStyle=orthogonalEdgeStyle;rounded=0;orthogonalLoop=1;jettySize=auto;html=1;fontSize=14;" edge="1" parent="1" source="5zbs8pa0OJM7zK-rl6oV-25" target="5zbs8pa0OJM7zK-rl6oV-24">
          <mxGeometry relative="1" as="geometry" />
        </mxCell>
        <mxCell id="5zbs8pa0OJM7zK-rl6oV-25" value="Support User" style="shape=umlActor;verticalLabelPosition=bottom;verticalAlign=top;html=1;outlineConnect=0;fontSize=14;" vertex="1" parent="1">
          <mxGeometry x="764" y="974" width="30" height="60" as="geometry" />
        </mxCell>
        <mxCell id="5zbs8pa0OJM7zK-rl6oV-34" value="SSH Connections &lt;br style=&quot;font-size: 14px;&quot;&gt;using Session Manager" style="text;html=1;align=center;verticalAlign=middle;resizable=0;points=[];autosize=1;strokeColor=none;fillColor=none;fontSize=14;" vertex="1" parent="1">
          <mxGeometry x="780" y="515" width="170" height="50" as="geometry" />
        </mxCell>
        <mxCell id="5zbs8pa0OJM7zK-rl6oV-37" value="AMI Creation" style="text;html=1;align=center;verticalAlign=middle;resizable=0;points=[];autosize=1;strokeColor=none;fillColor=none;fontSize=14;" vertex="1" parent="1">
          <mxGeometry x="750" y="210" width="110" height="30" as="geometry" />
        </mxCell>
        <mxCell id="5zbs8pa0OJM7zK-rl6oV-38" value="" style="sketch=0;points=[[0,0,0],[0.25,0,0],[0.5,0,0],[0.75,0,0],[1,0,0],[0,1,0],[0.25,1,0],[0.5,1,0],[0.75,1,0],[1,1,0],[0,0.25,0],[0,0.5,0],[0,0.75,0],[1,0.25,0],[1,0.5,0],[1,0.75,0]];points=[[0,0,0],[0.25,0,0],[0.5,0,0],[0.75,0,0],[1,0,0],[0,1,0],[0.25,1,0],[0.5,1,0],[0.75,1,0],[1,1,0],[0,0.25,0],[0,0.5,0],[0,0.75,0],[1,0.25,0],[1,0.5,0],[1,0.75,0]];outlineConnect=0;fontColor=#232F3E;gradientColor=#F34482;gradientDirection=north;fillColor=#BC1356;strokeColor=#ffffff;dashed=0;verticalLabelPosition=bottom;verticalAlign=top;align=center;html=1;fontSize=14;fontStyle=0;aspect=fixed;shape=mxgraph.aws4.resourceIcon;resIcon=mxgraph.aws4.cloudwatch_2;" vertex="1" parent="1">
          <mxGeometry x="990" y="474" width="78" height="78" as="geometry" />
        </mxCell>
        <mxCell id="5zbs8pa0OJM7zK-rl6oV-41" value="log steams" style="text;html=1;align=center;verticalAlign=middle;resizable=0;points=[];autosize=1;strokeColor=none;fillColor=none;fontSize=14;" vertex="1" parent="1">
          <mxGeometry x="1035" y="220" width="90" height="30" as="geometry" />
        </mxCell>
        <mxCell id="5zbs8pa0OJM7zK-rl6oV-42" value="SSM logs" style="text;html=1;align=center;verticalAlign=middle;resizable=0;points=[];autosize=1;strokeColor=none;fillColor=none;fontSize=14;" vertex="1" parent="1">
          <mxGeometry x="875" y="624" width="80" height="30" as="geometry" />
        </mxCell>
        <mxCell id="5zbs8pa0OJM7zK-rl6oV-44" value="Managing applications and packages" style="text;html=1;align=center;verticalAlign=middle;resizable=0;points=[];autosize=1;strokeColor=none;fillColor=none;fontSize=14;" vertex="1" parent="1">
          <mxGeometry x="583" y="47.5" width="250" height="30" as="geometry" />
        </mxCell>
        <mxCell id="5zbs8pa0OJM7zK-rl6oV-45" value="EC2 AMI" style="outlineConnect=0;dashed=0;verticalLabelPosition=bottom;verticalAlign=top;align=center;html=1;shape=mxgraph.aws3.ami;fillColor=#F58534;gradientColor=none;fontSize=14;" vertex="1" parent="1">
          <mxGeometry x="630" y="100" width="60" height="63" as="geometry" />
        </mxCell>
        <mxCell id="5zbs8pa0OJM7zK-rl6oV-62" value="Automation Tasks" style="text;html=1;align=center;verticalAlign=middle;resizable=0;points=[];autosize=1;strokeColor=none;fillColor=none;fontSize=14;" vertex="1" parent="1">
          <mxGeometry x="595" y="520" width="130" height="30" as="geometry" />
        </mxCell>
      </root>
    </mxGraphModel>
  </diagram>
</mxfile>
